<?xml version="1.0" standalone="no"?>
<!DOCTYPE svg PUBLIC "-//W3C//DTD SVG 1.1//EN"
"http://www.w3.org/Graphics/SVG/1.1/DTD/svg11.dtd">

<svg width="375" height="247" view_box="0 0 375 247"
xmlns="http://www.w3.org/2000/svg"
xmlns:link="http://www.w3.org/1999/xlink">\n\n<desc>Généré par Mocodo 2.3.7 le Wed, 05 Jan 2022 05:37:44</desc>

<rect id="frame" x="0" y="0" width="375" height="247" fill="#f5f5f5" stroke="none" stroke-width="0"/>

<!-- Association ECRIT -->
<line x1="73" y1="60" x2="204" y2="60" stroke="#bf812d" stroke-width="2"/>
<text x="112" y="77.0" fill="#01665e" font-family="Verdana" font-size="12">1,1</text>
<line x1="314" y1="60" x2="204" y2="60" stroke="#bf812d" stroke-width="2"/>
<text x="235" y="77.0" fill="#01665e" font-family="Verdana" font-size="12">0,N</text>
<g id="association-ECRIT">
	<path d="M 216 35 a 14 14 90 0 1 14 14 V 60 h -52 V 49 a 14 14 90 0 1 14 -14" fill="#dfc27d" stroke="#dfc27d" stroke-width="0"/>
	<path d="M 230 60.0 v 11 a 14 14 90 0 1 -14 14 H 192 a 14 14 90 0 1 -14 -14 V 60.0 H 52" fill="#f6e8c3" stroke="#f6e8c3" stroke-width="0"/>
	<rect x="178" y="35" width="52" height="50" fill="none" rx="14" stroke="#bf812d" stroke-width="2"/>
	<line x1="178" y1="60" x2="230" y2="60" stroke="#bf812d" stroke-width="1"/>
	<text x="185" y="52.7" fill="#000000" font-family="Verdana" font-size="12">ECRIT</text>
	<text x="185" y="77.8" fill="#000000" font-family="Verdana" font-size="12">année</text>
</g>

<!-- Association EMPRUNTE -->
<line x1="73" y1="60" x2="73" y2="187" stroke="#bf812d" stroke-width="2"/>
<text x="78.0" y="119" fill="#01665e" font-family="Verdana" font-size="12">0,N</text>
<line x1="204" y1="187" x2="73" y2="187" stroke="#bf812d" stroke-width="2"/>
<text x="142" y="204.0" fill="#01665e" font-family="Verdana" font-size="12">0,N</text>
<g id="association-EMPRUNTE">
	<path d="M 123 153 a 14 14 90 0 1 14 14 V 178 h -128 V 167 a 14 14 90 0 1 14 -14" fill="#dfc27d" stroke="#dfc27d" stroke-width="0"/>
	<path d="M 137 178.0 v 29 a 14 14 90 0 1 -14 14 H 23 a 14 14 90 0 1 -14 -14 V 178.0 H 128" fill="#f6e8c3" stroke="#f6e8c3" stroke-width="0"/>
	<rect x="9" y="153" width="128" height="68" fill="none" rx="14" stroke="#bf812d" stroke-width="2"/>
	<line x1="9" y1="178" x2="137" y2="178" stroke="#bf812d" stroke-width="1"/>
	<text x="39" y="170.7" fill="#000000" font-family="Verdana" font-size="12">EMPRUNTE</text>
	<text x="16" y="195.8" fill="#000000" font-family="Verdana" font-size="12">date_emprunt</text>
	<text x="16" y="212.8" fill="#000000" font-family="Verdana" font-size="12">date_retour_prévu</text>
</g>

<!-- Entity USAGER -->
<g id="entity-USAGER">
	<g id="frame-USAGER">
		<rect x="169" y="136" width="70" height="25" fill="#80cdc1" stroke="#80cdc1" stroke-width="0"/>
		<rect x="169" y="161.0" width="70" height="77" fill="#c7eae5" stroke="#c7eae5" stroke-width="0"/>
		<rect x="169" y="136" width="70" height="102" fill="none" stroke="#35978f" stroke-width="2"/>
		<line x1="169" y1="161" x2="239" y2="161" stroke="#35978f" stroke-width="1"/>
	</g>
	<text x="178" y="153.7" fill="#000000" font-family="Verdana" font-size="12">USAGER</text>
	<text x="174" y="178.7" fill="#000000" font-family="Verdana" font-size="12">nom</text>
	<line x1="174" y1="181" x2="202" y2="181" stroke="#000000" stroke-width="1"/>
	<text x="174" y="195.8" fill="#000000" font-family="Verdana" font-size="12">prénom</text>
	<text x="174" y="212.8" fill="#000000" font-family="Verdana" font-size="12">mail</text>
	<text x="174" y="229.8" fill="#000000" font-family="Verdana" font-size="12">téléphone</text>
</g>

<!-- Entity LIVRE -->
<g id="entity-LIVRE">
	<g id="frame-LIVRE">
		<rect x="39" y="18" width="68" height="25" fill="#80cdc1" stroke="#80cdc1" stroke-width="0"/>
		<rect x="39" y="43.0" width="68" height="59" fill="#c7eae5" stroke="#c7eae5" stroke-width="0"/>
		<rect x="39" y="18" width="68" height="84" fill="none" stroke="#35978f" stroke-width="2"/>
		<line x1="39" y1="43" x2="107" y2="43" stroke="#35978f" stroke-width="1"/>
	</g>
	<text x="54" y="35.7" fill="#000000" font-family="Verdana" font-size="12">LIVRE</text>
	<text x="44" y="60.8" fill="#000000" font-family="Verdana" font-size="12">ISBN</text>
	<line x1="44" y1="63" x2="76" y2="63" stroke="#000000" stroke-width="1"/>
	<text x="44" y="77.8" fill="#000000" font-family="Verdana" font-size="12">titre</text>
	<text x="44" y="94.8" fill="#000000" font-family="Verdana" font-size="12">catégorie</text>
</g>

<!-- Entity AUTEUR -->
<g id="entity-AUTEUR">
	<g id="frame-AUTEUR">
		<rect x="262" y="9" width="104" height="25" fill="#80cdc1" stroke="#80cdc1" stroke-width="0"/>
		<rect x="262" y="34.0" width="104" height="77" fill="#c7eae5" stroke="#c7eae5" stroke-width="0"/>
		<rect x="262" y="9" width="104" height="102" fill="none" stroke="#35978f" stroke-width="2"/>
		<line x1="262" y1="34" x2="366" y2="34" stroke="#35978f" stroke-width="1"/>
	</g>
	<text x="289" y="26.7" fill="#000000" font-family="Verdana" font-size="12">AUTEUR</text>
	<text x="267" y="51.7" fill="#000000" font-family="Verdana" font-size="12">nom</text>
	<line x1="267" y1="54" x2="295" y2="54" stroke="#000000" stroke-width="1"/>
	<text x="267" y="68.8" fill="#000000" font-family="Verdana" font-size="12">prénom</text>
	<text x="267" y="85.8" fill="#000000" font-family="Verdana" font-size="12">date_naissance</text>
	<text x="267" y="102.8" fill="#000000" font-family="Verdana" font-size="12">date_décès</text>
</g>
</svg>