<?xml version="1.0" standalone="no"?>
<!DOCTYPE svg PUBLIC "-//W3C//DTD SVG 1.1//EN"
"http://www.w3.org/Graphics/SVG/1.1/DTD/svg11.dtd">

<svg width="384" height="279" view_box="0 0 384 279"
xmlns="http://www.w3.org/2000/svg"
xmlns:link="http://www.w3.org/1999/xlink">\n\n<desc>Généré par Mocodo 2.3.7 le Wed, 05 Jan 2022 06:07:23</desc>

<rect id="frame" x="0" y="0" width="384" height="279" fill="#f5f5f5" stroke="none" stroke-width="0"/>

<!-- Association ECRIT -->
<line x1="73" y1="68" x2="213" y2="68" stroke="#bf812d" stroke-width="2"/>
<text x="112" y="85.0" fill="#01665e" font-family="Verdana" font-size="12">1,1</text>
<line x1="323" y1="68" x2="213" y2="68" stroke="#bf812d" stroke-width="2"/>
<text x="244" y="85.0" fill="#01665e" font-family="Verdana" font-size="12">0,N</text>
<g id="association-ECRIT">
	<path d="M 225 43 a 14 14 90 0 1 14 14 V 68 h -52 V 57 a 14 14 90 0 1 14 -14" fill="#dfc27d" stroke="#dfc27d" stroke-width="0"/>
	<path d="M 239 68.0 v 11 a 14 14 90 0 1 -14 14 H 201 a 14 14 90 0 1 -14 -14 V 68.0 H 52" fill="#f6e8c3" stroke="#f6e8c3" stroke-width="0"/>
	<rect x="187" y="43" width="52" height="50" fill="none" rx="14" stroke="#bf812d" stroke-width="2"/>
	<line x1="187" y1="68" x2="239" y2="68" stroke="#bf812d" stroke-width="1"/>
	<text x="194" y="60.7" fill="#000000" font-family="Verdana" font-size="12">ECRIT</text>
	<text x="194" y="85.8" fill="#000000" font-family="Verdana" font-size="12">année</text>
</g>

<!-- Association EMPRUNTE -->
<line x1="73" y1="68" x2="73" y2="211" stroke="#bf812d" stroke-width="2"/>
<text x="78.0" y="127" fill="#01665e" font-family="Verdana" font-size="12">0,N</text>
<line x1="213" y1="211" x2="73" y2="211" stroke="#bf812d" stroke-width="2"/>
<text x="142" y="228.0" fill="#01665e" font-family="Verdana" font-size="12">0,N</text>
<g id="association-EMPRUNTE">
	<path d="M 123 177 a 14 14 90 0 1 14 14 V 202 h -128 V 191 a 14 14 90 0 1 14 -14" fill="#dfc27d" stroke="#dfc27d" stroke-width="0"/>
	<path d="M 137 202.0 v 29 a 14 14 90 0 1 -14 14 H 23 a 14 14 90 0 1 -14 -14 V 202.0 H 128" fill="#f6e8c3" stroke="#f6e8c3" stroke-width="0"/>
	<rect x="9" y="177" width="128" height="68" fill="none" rx="14" stroke="#bf812d" stroke-width="2"/>
	<line x1="9" y1="202" x2="137" y2="202" stroke="#bf812d" stroke-width="1"/>
	<text x="39" y="194.7" fill="#000000" font-family="Verdana" font-size="12">EMPRUNTE</text>
	<text x="16" y="219.8" fill="#000000" font-family="Verdana" font-size="12">date_emprunt</text>
	<text x="16" y="236.8" fill="#000000" font-family="Verdana" font-size="12">date_retour_prévu</text>
</g>

<!-- Entity USAGER -->
<g id="entity-USAGER">
	<g id="frame-USAGER">
		<rect x="169" y="152" width="88" height="25" fill="#80cdc1" stroke="#80cdc1" stroke-width="0"/>
		<rect x="169" y="177.0" width="88" height="93" fill="#c7eae5" stroke="#c7eae5" stroke-width="0"/>
		<rect x="169" y="152" width="88" height="118" fill="none" stroke="#35978f" stroke-width="2"/>
		<line x1="169" y1="177" x2="257" y2="177" stroke="#35978f" stroke-width="1"/>
	</g>
	<text x="187" y="169.7" fill="#000000" font-family="Verdana" font-size="12">USAGER</text>
	<text x="174" y="194.7" fill="#000000" font-family="Verdana" font-size="12">code_usager</text>
	<line x1="174" y1="197" x2="252" y2="197" stroke="#000000" stroke-width="1"/>
	<text x="174" y="211.8" fill="#000000" font-family="Verdana" font-size="12">nom</text>
	<text x="174" y="228.8" fill="#000000" font-family="Verdana" font-size="12">prénom</text>
	<text x="174" y="245.8" fill="#000000" font-family="Verdana" font-size="12">mail</text>
	<text x="174" y="262.8" fill="#000000" font-family="Verdana" font-size="12">téléphone</text>
</g>

<!-- Entity LIVRE -->
<g id="entity-LIVRE">
	<g id="frame-LIVRE">
		<rect x="39" y="26" width="68" height="25" fill="#80cdc1" stroke="#80cdc1" stroke-width="0"/>
		<rect x="39" y="51.0" width="68" height="59" fill="#c7eae5" stroke="#c7eae5" stroke-width="0"/>
		<rect x="39" y="26" width="68" height="84" fill="none" stroke="#35978f" stroke-width="2"/>
		<line x1="39" y1="51" x2="107" y2="51" stroke="#35978f" stroke-width="1"/>
	</g>
	<text x="54" y="43.7" fill="#000000" font-family="Verdana" font-size="12">LIVRE</text>
	<text x="44" y="68.8" fill="#000000" font-family="Verdana" font-size="12">ISBN</text>
	<line x1="44" y1="71" x2="76" y2="71" stroke="#000000" stroke-width="1"/>
	<text x="44" y="85.8" fill="#000000" font-family="Verdana" font-size="12">titre</text>
	<text x="44" y="102.8" fill="#000000" font-family="Verdana" font-size="12">catégorie</text>
</g>

<!-- Entity AUTEUR -->
<g id="entity-AUTEUR">
	<g id="frame-AUTEUR">
		<rect x="271" y="9" width="104" height="25" fill="#80cdc1" stroke="#80cdc1" stroke-width="0"/>
		<rect x="271" y="34.0" width="104" height="93" fill="#c7eae5" stroke="#c7eae5" stroke-width="0"/>
		<rect x="271" y="9" width="104" height="118" fill="none" stroke="#35978f" stroke-width="2"/>
		<line x1="271" y1="34" x2="375" y2="34" stroke="#35978f" stroke-width="1"/>
	</g>
	<text x="298" y="26.7" fill="#000000" font-family="Verdana" font-size="12">AUTEUR</text>
	<text x="276" y="51.7" fill="#000000" font-family="Verdana" font-size="12">code_auteur</text>
	<line x1="276" y1="54" x2="352" y2="54" stroke="#000000" stroke-width="1"/>
	<text x="276" y="68.8" fill="#000000" font-family="Verdana" font-size="12">nom</text>
	<text x="276" y="85.8" fill="#000000" font-family="Verdana" font-size="12">prénom</text>
	<text x="276" y="102.8" fill="#000000" font-family="Verdana" font-size="12">date_naissance</text>
	<text x="276" y="119.8" fill="#000000" font-family="Verdana" font-size="12">date_décès</text>
</g>
</svg>